# xmcd
#
# Track frame offsets:
#	150
#	16353
#	33494
#	53152
#	70945
#	88812
#	104808
#	125511
#	147960
#	171084
#	184668
#	199316
#
# Disc length: 2924 seconds
#
# Revision: 1
# Processed by: cddbd v1.5.2PL0 Copyright (c) Steve Scherf et al.
# Submitted via: audiograbber 1.83.01
#
DISCID=b10b6a0c
DTITLE=Scott Lowell Sind - Back Roads
DYEAR=1997
DGENRE=Country
TTITLE0=Chevrolet And James Dean
TTITLE1=Welcome To America
TTITLE2=Empty Streets
TTITLE3=High, Wild And Lonesome
TTITLE4=Long Way From Paradise
TTITLE5=A Song For Kristina
TTITLE6=The Girl From Havana
TTITLE7=Summer Of '61
TTITLE8=You Know What I'm Sayin', Girl
TTITLE9=Let It Rain
TTITLE10=Who I am
TTITLE11=Dance With Me
EXTD=
EXTT0=
EXTT1=
EXTT2=
EXTT3=
EXTT4=
EXTT5=
EXTT6=
EXTT7=
EXTT8=
EXTT9=
EXTT10=
EXTT11=
PLAYORDER=
